# xmcd
#
# Track frame offsets: 
#        150
#        14310
#        31673
#        41948
#        55741
#        71896
#        86289
#        100494
#        119334
#        133667
#        153100
#        171805
#        193563
#        212021
#        231499
#        247009
#        264822
#        280160
#        293255
#        307603
#
# Disc length: 4306 seconds
#
# Revision: 0
# Processed by: cddbd v1.5.2PL0 Copyright (c) Steve Scherf et al.
# Submitted via: ExactAudioCopy v1.3
#
DISCID=0c10d014
DTITLE=Various Artist - TSP Country and Americana Volume 183
DYEAR=2019
DGENRE=Country
TTITLE0=Ronnie Dye - Better Take Off Your Hat
TTITLE1=Laural Mendes - Don't Hang Up
TTITLE2=George Hamilton IV with The Captain's Crew - Abilene
TTITLE3=Darrell Goldman - Gravity
TTITLE4=Phillip Sanders (Doung Jones) - I Don't Think I Will
TTITLE5=Charles Sanders (f. Curt Ryle) - Behind The Teardrops
TTITLE6=Paul Crowder - Baby Please
TTITLE7=Glen Cain - Hold Back The Dawn
TTITLE8=Ella Walker - My Life
TTITLE9=Otis C Truax - Ask A Woman
TTITLE10=Laural Mendes - Night To End
TTITLE11=Razz Taylor - Okeechobee
TTITLE12=Otis C Truax - Little Hearts
TTITLE13=Mike Contoni - She Always
TTITLE14=Mike Ciariante (demo by Studio Pros) - Reverse Cowgirl
TTITLE15=Clark Ford (demo by Underground Treehouse Studio) - She's Got
TTITLE15=Me Runnin'
TTITLE16=Todd Barrow - Down On The Farm
TTITLE17=Regan Hudson - Broken Pieces Of My Heart
TTITLE18=Larry M Clark - It This The Best
TTITLE19=Pig Farmer - Pig Farmer
EXTD=
EXTT0=
EXTT1=
EXTT2=
EXTT3=
EXTT4=
EXTT5=
EXTT6=
EXTT7=
EXTT8=
EXTT9=
EXTT10=
EXTT11=
EXTT12=
EXTT13=
EXTT14=
EXTT15=
EXTT16=
EXTT17=
EXTT18=
EXTT19=
PLAYORDER=
